<?xml version="1.0" standalone="no"?><!DOCTYPE svg PUBLIC "-//W3C//DTD SVG 1.1//EN" "http://www.w3.org/Graphics/SVG/1.1/DTD/svg11.dtd"><svg t="1581749241230" class="icon" viewBox="0 0 1024 1024" version="1.1" xmlns="http://www.w3.org/2000/svg" p-id="4715" xmlns:xlink="http://www.w3.org/1999/xlink" width="32" height="32"><defs><style type="text/css"></style></defs><path d="M703.269196 516.02895c-15.08835-3.859073 42.638098-89.97749-15.294045-128.801543-55.282676-37.049555-174.166883 36.04155-178.195833 29.997614-2.353717-3.526482 30.485754-111.24486-35.87372-121.149916-157.619228-23.517728-342.873142 221.712993-339.929972 351.103988 3.612444 158.757199 168.194581 236.416562 329.990122 217.947045 190.026843-21.692062 338.101236-112.80036 343.981436-244.537909C809.737034 580.551501 783.834888 536.605555 703.269196 516.02895L703.269196 516.02895zM677.568652 658.930282c-7.78671 88.997116-120.744667 161.150827-252.289825 161.150827-131.541065 0-231.865701-72.153711-224.076944-161.150827 7.77443-88.985859 120.73341-161.132407 252.277545-161.132407C585.024587 497.797875 685.344105 569.944423 677.568652 658.930282L677.568652 658.930282zM677.568652 658.930282" p-id="4716"></path><path d="M428.535143 562.488256c-70.482572 0-130.144185 50.026723-133.250068 111.734024-3.105883 61.721627 51.516728 111.746304 122.005441 111.746304 70.482572 0 130.144185-50.029793 133.244952-111.746304C553.645443 612.51498 499.016691 562.488256 428.535143 562.488256L428.535143 562.488256zM385.33727 737.737849c-22.091171 0-39.991701-17.900531-39.991701-39.980444 0-22.093217 17.900531-39.992725 39.991701-39.992725 22.080937 0 39.989655 17.899507 39.989655 39.992725C425.326924 719.837318 407.418207 737.737849 385.33727 737.737849L385.33727 737.737849zM454.734062 675.404255c-8.450868 0-15.291998-6.8442-15.291998-15.287905 0-8.440634 6.842153-15.293021 15.291998-15.293021 8.441658 0 15.279718 6.852387 15.279718 15.293021C470.013779 668.561079 463.174696 675.404255 454.734062 675.404255L454.734062 675.404255zM454.734062 675.404255" p-id="4717"></path><path d="M883.780882 479.343709c-2.735429 0-5.512815-0.425716-8.24722-1.323198-13.887955-4.548814-21.46283-19.497988-16.912993-33.385943 1.877857-5.73386 3.441544-11.636573 4.65729-17.55566 2.149046-10.520092 3.243013-21.353331 3.243013-32.208061 0-88.048465-71.626683-159.674125-159.674125-159.674125-8.814159 0-17.652879 0.725559-26.267483 2.148023-14.404749 2.388511-28.035841-7.375322-30.423329-21.794398-2.380324-14.425216 7.375322-28.041982 21.795421-30.426399 11.461579-1.895254 23.204581-2.853115 34.893345-2.853115 117.234558 0 212.604107 95.380806 212.604107 212.601037 0 14.410889-1.452141 28.815638-4.320606 42.822302-1.611785 7.899279-3.703523 15.773998-6.207673 23.415392C905.26418 472.256974 894.909871 479.343709 883.780882 479.343709L883.780882 479.343709zM883.780882 479.343709" p-id="4718"></path><path d="M786.025892 450.364334c-2.726218 0-5.498488-0.421622-8.239033-1.319105-13.893071-4.548814-21.468971-19.492871-16.91504-33.380826 0.685648-2.105042 1.257704-4.261251 1.690583-6.409274 0.792077-3.861119 1.194256-7.835831 1.194256-11.804403 0-32.199874-26.194825-58.401863-58.398793-58.401863-3.237896 0-6.481932 0.265049-9.640007 0.785937-14.401679 2.352694-28.036865-7.383508-30.413096-21.808725-2.382371-14.417029 7.384532-28.038911 21.796444-30.422306 5.996862-0.988561 12.143134-1.486935 18.256658-1.486935 61.384943 0 111.330822 49.944855 111.330822 111.333892 0 7.525755-0.76547 15.059696-2.259568 22.401247-0.846315 4.124122-1.938235 8.248244-3.25734 12.277193C807.520446 443.284763 797.158974 450.364334 786.025892 450.364334L786.025892 450.364334zM786.025892 450.364334" p-id="4719"></path></svg>